<svg id="visual" viewBox="0 0 900 600" width="900" height="600" xmlns="http://www.w3.org/2000/svg"
    xmlns:xlink="http://www.w3.org/1999/xlink" version="1.1">
    <path
        d="M0 218L11.5 217.8C23 217.7 46 217.3 69 198C92 178.7 115 140.3 138.2 137.2C161.3 134 184.7 166 207.8 180.7C231 195.3 254 192.7 277 180.7C300 168.7 323 147.3 346 143.5C369 139.7 392 153.3 415.2 149C438.3 144.7 461.7 122.3 484.8 127.8C508 133.3 531 166.7 554 181.2C577 195.7 600 191.3 623 175C646 158.7 669 130.3 692.2 128.5C715.3 126.7 738.7 151.3 761.8 155C785 158.7 808 141.3 831 148.3C854 155.3 877 186.7 888.5 202.3L900 218L900 0L888.5 0C877 0 854 0 831 0C808 0 785 0 761.8 0C738.7 0 715.3 0 692.2 0C669 0 646 0 623 0C600 0 577 0 554 0C531 0 508 0 484.8 0C461.7 0 438.3 0 415.2 0C392 0 369 0 346 0C323 0 300 0 277 0C254 0 231 0 207.8 0C184.7 0 161.3 0 138.2 0C115 0 92 0 69 0C46 0 23 0 11.5 0L0 0Z"
        fill="#42C2FF" stroke-linecap="round" stroke-linejoin="miter"></path>
</svg>